<?xml version="1.0"?>
<svg xmlns="http://www.w3.org/2000/svg" xmlns:xlink="http://www.w3.org/1999/xlink" xmlns:svgjs="http://svgjs.com/svgjs" version="1.1" width="512" height="512" x="0" y="0" viewBox="0 0 512 512" style="enable-background:new 0 0 512 512" xml:space="preserve"><g>
<g xmlns="http://www.w3.org/2000/svg" transform="translate(-1)">
	<path style="" d="M124.586,185.379v44.138c0,77.683,59.145,158.897,132.414,158.897S389.414,307.2,389.414,229.517   v-44.138H124.586z" fill="#faba81" data-original="#faba81"/>
	<path style="" d="M292.31,26.483v-8.828C292.31,7.945,284.366,0,274.655,0h-35.31c-9.71,0-17.655,7.945-17.655,17.655   v8.828c-66.207,15.89-114.759,70.621-114.759,141.241v17.655h300.138v-17.655C407.069,97.103,358.517,42.372,292.31,26.483" fill="#f4ba48" data-original="#f4ba48"/>
	<g>
		<path style="" d="M292.31,70.621c-5.297,0-8.828-3.531-8.828-8.828V35.31c0-5.297,3.531-8.828,8.828-8.828    s8.828,3.531,8.828,8.828v26.483C301.138,67.09,297.607,70.621,292.31,70.621" fill="#b58024" data-original="#b58024"/>
		<path style="" d="M221.69,70.621c-5.297,0-8.828-3.531-8.828-8.828V35.31c0-5.297,3.531-8.828,8.828-8.828    s8.828,3.531,8.828,8.828v26.483C230.517,67.09,226.986,70.621,221.69,70.621" fill="#b58024" data-original="#b58024"/>
		<path style="" d="M424.724,194.207H89.276c-5.297,0-8.828-3.531-8.828-8.828s3.531-8.828,8.828-8.828h335.448    c5.297,0,8.828,3.531,8.828,8.828S430.021,194.207,424.724,194.207" fill="#b58024" data-original="#b58024"/>
	</g>
	<g>
		<path style="" d="M292.31,467.862H221.69L257,388.414L292.31,467.862z" fill="#364875" data-original="#364875"/>
		<path style="" d="M212.862,512l8.828-44.138h70.621L301.138,512H212.862z" fill="#364875" data-original="#364875"/>
	</g>
	<g>
		<path style="" d="M162.545,336.331l-2.648-0.883l-8.828,35.31l70.621,97.103L257,388.414    C219.924,388.414,186.379,367.228,162.545,336.331" fill="#5869a0" data-original="#5869a0"/>
		<path style="" d="M351.455,336.331c-23.834,30.897-57.379,52.083-94.455,52.083l35.31,79.448l70.621-97.103    l-8.828-35.31L351.455,336.331z" fill="#5869a0" data-original="#5869a0"/>
	</g>
	<g>
		<path style="" d="M491.814,438.731c-48.552-25.6-95.338-45.021-137.71-50.317h-4.414l-57.379,79.448L301.138,512    h-3.531l0,0H513v-37.959C513,459.034,505.055,445.793,491.814,438.731" fill="#7383bf" data-original="#7383bf"/>
		<path style="" d="M164.31,388.414h-4.414c-42.372,5.297-89.159,24.717-137.71,50.317    C8.945,445.793,1,459.034,1,474.041V512h211.862l8.828-44.138L164.31,388.414z" fill="#7383bf" data-original="#7383bf"/>
	</g>
	<g>
		<path style="" d="M128.117,92.69l67.09,13.241L181.966,41.49C159.897,53.848,141.359,71.503,128.117,92.69" fill="#b58024" data-original="#b58024"/>
		<path style="" d="M385.883,92.69l-67.09,13.241l13.241-64.441C354.103,53.848,372.641,71.503,385.883,92.69" fill="#b58024" data-original="#b58024"/>
	</g>
</g>
<g xmlns="http://www.w3.org/2000/svg">
</g>
<g xmlns="http://www.w3.org/2000/svg">
</g>
<g xmlns="http://www.w3.org/2000/svg">
</g>
<g xmlns="http://www.w3.org/2000/svg">
</g>
<g xmlns="http://www.w3.org/2000/svg">
</g>
<g xmlns="http://www.w3.org/2000/svg">
</g>
<g xmlns="http://www.w3.org/2000/svg">
</g>
<g xmlns="http://www.w3.org/2000/svg">
</g>
<g xmlns="http://www.w3.org/2000/svg">
</g>
<g xmlns="http://www.w3.org/2000/svg">
</g>
<g xmlns="http://www.w3.org/2000/svg">
</g>
<g xmlns="http://www.w3.org/2000/svg">
</g>
<g xmlns="http://www.w3.org/2000/svg">
</g>
<g xmlns="http://www.w3.org/2000/svg">
</g>
<g xmlns="http://www.w3.org/2000/svg">
</g>
</g></svg>
