<svg id="Layer_1" height="512" viewBox="0 0 512 512" width="512" xmlns="http://www.w3.org/2000/svg" data-name="Layer 1"><path d="m69.94 36.29v20.66l390.45 113.58h.01l5.12-15.21z" fill="#b0b5ca"/><path d="m159.98 471.3v22.9l192.44.8v-22.9z" fill="#5f7787"/><path d="m321.65 333.67 17.01 138.37-9.68-.04-75.76-72.9z" fill="#84a0a3"/><path d="m328.98 472-151.26-.63v-.07l75.5-72.2z" fill="#a4bdc1"/><path d="m185.71 334.13 67.51 64.97-75.5 72.2v.07l-6.47-.02v-.05z" fill="#84a0a3"/><path d="m305.22 200.06 14.51 118-66.28-66.25z" fill="#84a0a3"/><path d="m319.73 318.06 1.92 15.61-68.43 65.43-67.51-64.97 1.72-16.33 66.02-65.99z" fill="#a4bdc1"/><path d="m253.45 251.81-66.02 65.99 12.59-119.39z" fill="#84a0a3"/><path d="m304.22 191.91 1 8.15-51.77 51.75-53.43-53.4.68-6.5h102.49c.35 0 .69-.01 1.03-.04z" fill="#a4bdc1"/><path d="m303.19 162.7h-103.74a14.6 14.6 0 0 0 -14.59 14.6v.01a14.6 14.6 0 0 0 14.59 14.6l104.77-.04a14.6 14.6 0 0 0 13.56-14.56v-.01a14.6 14.6 0 0 0 -14.59-14.6z" fill="#5f7787"/><path d="m487.14 292.94h-21.1a3.809 3.809 0 0 0 -3.81 3.81v113a3.815 3.815 0 0 0 3.81 3.81h21.1a3.818 3.818 0 0 0 3.82-3.81v-113a3.811 3.811 0 0 0 -3.82-3.81z" fill="#6d6d93"/><path d="m477.2 150.68a17.04 17.04 0 1 1 -16.8 19.85 16.227 16.227 0 0 1 -.24-2.81 17.053 17.053 0 0 1 17.04-17.04z" fill="#6d7486"/><path d="m59.88 260.03h-32.07a3.811 3.811 0 0 0 -3.81 3.82v29.52a3.811 3.811 0 0 0 3.81 3.82h32.07a3.82 3.82 0 0 0 3.82-3.82v-29.52a3.82 3.82 0 0 0 -3.82-3.82z" fill="#6d6d93"/><path d="m66.13 17h-44.57a3.818 3.818 0 0 0 -3.81 3.82v53.79a6.1 6.1 0 0 0 2.26 4.73l20 16.2a6.087 6.087 0 0 0 7.67 0l20-16.2a6.1 6.1 0 0 0 2.26-4.74v-53.78a3.818 3.818 0 0 0 -3.81-3.82z" fill="#6d7486"/><path d="m235.6 134.45v28.25h32.92v-28.47z" fill="#b0b5ca"/><path d="m235.6 134.45a34.789 34.789 0 0 1 -18.56-30.77v-.13a34.807 34.807 0 0 1 69.61-.43c.01.19.01.37.01.56a34.819 34.819 0 0 1 -51.06 30.77z" fill="#4a5160"/><path d="m251.85 87.79a15.885 15.885 0 1 1 -15.89 15.89 15.893 15.893 0 0 1 15.89-15.89z" fill="#6d7486"/><path d="m159.98 471.3v22.9h30v-22.775z" fill="#465b66"/><path d="m214.86 177.31v-.01a14.6 14.6 0 0 1 14.59-14.6h-30a14.6 14.6 0 0 0 -14.59 14.6v.01a14.6 14.6 0 0 0 14.59 14.6l29.776-.011a14.59 14.59 0 0 1 -14.366-14.589z" fill="#465b66"/><path d="m177.72 471.3v.07l23.53-.023v-.047l2.638-25.024z" fill="#8a9ea0"/><path d="m174.14 471.359 3.58.011v-.07l26.168-25.024 9.059-85.934-27.237-26.212-14.46 137.17v.047.003z" fill="#6d8384"/><path d="m187.43 317.8-1.72 16.33 27.237 26.212 8.018-76.061z" fill="#8a9ea0"/><path d="m227.16 225.534-27.14-27.124-12.59 119.39 33.535-33.519z" fill="#6d8384"/><path d="m200.7 191.91-.68 6.5 27.14 27.124 3.54-33.624z" fill="#8a9ea0"/><g fill="#284268"><path d="m251.852 81.787a21.889 21.889 0 1 0 21.9 21.889 21.917 21.917 0 0 0 -21.9-21.889zm0 31.777a9.889 9.889 0 1 1 9.9-9.888 9.9 9.9 0 0 1 -9.9 9.888z"/><path d="m166.049 334.576a6 6 0 0 0 5.951-5.266l.8-6.455a6 6 0 1 0 -11.91-1.468l-.8 6.454a6 6 0 0 0 5.221 6.689 6.209 6.209 0 0 0 .738.046z"/><path d="m157.865 443.838 11.548-93.586a6 6 0 1 0 -11.91-1.469l-11.547 93.586a6 6 0 0 0 5.22 6.69 6.207 6.207 0 0 0 .742.045 6 6 0 0 0 5.947-5.266z"/><path d="m500.248 167.72a23.035 23.035 0 0 0 -36.017-19.029l-171.908-50.17a40.783 40.783 0 0 0 -71.734-21.021l-144.649-45.611v-11.073a9.824 9.824 0 0 0 -9.812-9.816h-44.564a9.825 9.825 0 0 0 -9.812 9.816v53.79a12.035 12.035 0 0 0 4.478 9.394l20 16.2a11.936 11.936 0 0 0 1.613 1.1v152.731h-10.032a9.825 9.825 0 0 0 -9.811 9.815v29.528a9.825 9.825 0 0 0 9.814 9.815h32.068a9.826 9.826 0 0 0 9.814-9.815v-29.528a9.826 9.826 0 0 0 -9.814-9.815h-10.036v-152.731a11.945 11.945 0 0 0 1.614-1.1l20-16.2a12.039 12.039 0 0 0 4.48-9.4v-9.454l135.36 42.915a40.823 40.823 0 0 0 18.3 29.778v18.866h-30.15a20.589 20.589 0 0 0 -5.34 40.474l-28.265 268.149-5.845-.028a6.125 6.125 0 0 0 -4.258 1.749 6 6 0 0 0 -1.766 4.251v22.9a6 6 0 0 0 5.975 6l192.441.8h.025a6 6 0 0 0 6-6v-22.9a6 6 0 0 0 -5.975-6l-8.47-.036-33.152-269.639a20.592 20.592 0 0 0 -7.627-39.72h-28.675v-19.128a41.153 41.153 0 0 0 9.809-9.26l171.153 47.083a23.135 23.135 0 0 0 15.72 14.56v96.978h-5.158a9.824 9.824 0 0 0 -9.814 9.813v113a9.824 9.824 0 0 0 9.814 9.814h21.1a9.824 9.824 0 0 0 9.814-9.814v-113a9.824 9.824 0 0 0 -9.814-9.813h-3.942v-96.978a23.076 23.076 0 0 0 17.048-22.24zm-442.548 98.311v25.158h-27.7v-25.158zm6.24-191.431a.094.094 0 0 1 -.033.072l-20 16.2a.094.094 0 0 1 -.12 0l-20.035-16.266v-51.606h40.188zm147.9 21.041-135.9-43.084v-8.085l138.221 43.579a40.473 40.473 0 0 0 -2.319 7.594zm-21.452 251.321 54.168 52.127-66.35 63.447zm62.823 60.456 60.816 58.524-121.493-.5zm93.206 70.659v10.9l-180.441-.748v-10.9zm-14.542-12.061h-.467l-69.517-66.9 55.262-52.843zm-16.549-134.6-62.089 59.373-61.255-58.947 1.191-11.3 60.276-60.245 60.577 60.547zm-70.365-79.607-49.788 49.763 9.491-90.04zm-36.954-53.9h90.884l-45.442 45.419zm103.641 103.591-49.711-49.686 38.83-38.814zm-8.455-132.79a8.6 8.6 0 0 1 0 17.2h-103.743a8.6 8.6 0 0 1 0-17.2zm-61.6-12v-13.551a40.79 40.79 0 0 0 20.923-.116v13.662zm10.257-24.239a28.791 28.791 0 1 1 28.809-28.79 28.832 28.832 0 0 1 -28.807 28.785zm202.853 30.278-164.476-45.25a40.385 40.385 0 0 0 1.773-6.571l163.962 47.851a22.8 22.8 0 0 0 -1.257 3.965zm30.25 136.194v108.617h-16.723v-108.622zm-7.753-120.186a11.037 11.037 0 1 1 11.046-11.037 11.054 11.054 0 0 1 -11.046 11.037z"/></g></svg>