<?xml version="1.0"?>
<svg xmlns="http://www.w3.org/2000/svg" xmlns:xlink="http://www.w3.org/1999/xlink" xmlns:svgjs="http://svgjs.com/svgjs" version="1.1" width="512" height="512" x="0" y="0" viewBox="0 0 512 512" style="enable-background:new 0 0 512 512" xml:space="preserve"><g><path xmlns="http://www.w3.org/2000/svg" d="m95.585938 297.511719-95.585938 139.40625 92.289062-17.210938 17.210938 92.292969 90.746094-132.347656zm0 0" fill="#f57f41" data-original="#f57f41" style=""/><path xmlns="http://www.w3.org/2000/svg" d="m410.378906 297.511719-104.660156 82.140625 90.75 132.347656 17.207031-92.292969 92.289063 17.210938zm0 0" fill="#ea623c" data-original="#ea623c" style=""/><path xmlns="http://www.w3.org/2000/svg" d="m252.980469 0c-113.691407 0-206.1875 92.5-206.1875 206.203125 0 113.699219 92.496093 206.199219 206.1875 206.199219 113.695312 0 206.195312-92.5 206.195312-206.203125 0-113.699219-92.5-206.199219-206.195312-206.199219zm0 0" fill="#ffe07f" data-original="#ffe07f" style=""/><path xmlns="http://www.w3.org/2000/svg" d="m252.980469 0v412.402344c113.695312 0 206.195312-92.5 206.195312-206.203125 0-113.699219-92.5-206.199219-206.195312-206.199219zm0 0" fill="#ffd23a" data-original="#ffd23a" style=""/><path xmlns="http://www.w3.org/2000/svg" d="m216.226562 294.164062-70.398437-70.402343 21.335937-21.335938 49.0625 49.0625 122.574219-122.578125 21.335938 21.335938zm0 0" fill="#1d608b" data-original="#1d608b" style=""/><path xmlns="http://www.w3.org/2000/svg" d="m252.980469 257.5 107.15625-107.253906-21.335938-21.335938-85.820312 85.820313zm0 0" fill="#0d3954" data-original="#0d3954" style=""/></g></svg>
