<?xml version="1.0"?>
<svg xmlns="http://www.w3.org/2000/svg" xmlns:xlink="http://www.w3.org/1999/xlink" xmlns:svgjs="http://svgjs.com/svgjs" version="1.1" width="512" height="512" x="0" y="0" viewBox="0 0 64 64" style="enable-background:new 0 0 512 512" xml:space="preserve" class=""><g><g xmlns="http://www.w3.org/2000/svg"><g><g><path d="m16.22 31.22-.22-.22v-2.59c0-.78-.63-1.41-1.41-1.41-.38 0-.74.15-1 .41l-1.59 1.59c-1.82-1.37-3.32-3.14-4.36-5.19-1.05-2.04-1.64-4.35-1.64-6.81 0-8.28 6.72-15 15-15h3c3.31 0 6 2.69 6 6v.18c0 .56-.08 1.1-.23 1.61l.33.08c-.07.32-.1.65-.1.98 0 1.19.44 2.3 1.16 3.15.74.86 1.76 1.46 2.94 1.65l5.17.81c.08.01.15.02.23.04 4.03.69 7.66 2.71 10.34 5.66 1.05 1.15 1.95 2.44 2.68 3.84h-3.52c-.55 0-1 .45-1 1v2c0 .55.45 1 1 1h1v4c-1.73.29-3.23 1.18-4.3 2.44-1.06 1.26-1.7 2.88-1.7 4.64v.92c-2.58 0-5.08-.92-7.04-2.6l-.31-.27c-2.35-2.02-5.36-3.13-8.46-3.13h-7.19z" fill="#69d6f4" data-original="#69d6f4" style="" class=""/></g><g><path d="m26.29 41.29-5.29-5.29-4.78-4.78-.22-.22-10 10 6.99 6.99c1.34-.44 2.72-.73 4.12-.88l6.89-.11 2.29-2.29c.46-.46.71-1.07.71-1.71s-.25-1.25-.71-1.71z" fill="#ccd1d9" data-original="#ccd1d9" style=""/></g><g><path d="m22.5 42.5-3-3-.5-.5c-.66-.66-1.56-1.04-2.5-1.04-.98 0-1.86.4-2.5 1.04s-1.04 1.52-1.04 2.5c0 .94.38 1.84 1.04 2.5l.5.5 2.61 2.61c.28-.03.57-.05.85-.07.42-.03.85-.04 1.27-.04 1.45 0 2.9.16 4.3.47l1.97-1.97z" fill="#ff826e" data-original="#ff826e" style=""/></g><g><path d="m16 28.41v2.59l-10 10h-2.59c-.78 0-1.41-.63-1.41-1.41 0-.38.15-.74.41-1l6.74-6.74 2.85-2.85 1.59-1.59c.26-.26.62-.41 1-.41.78 0 1.41.63 1.41 1.41z" fill="#fcd770" data-original="#fcd770" style=""/></g><g><path d="m56.379 2.672h4.243v5.657h-4.243z" fill="#fcd770" transform="matrix(.707 -.707 .707 .707 13.245 42.977)" data-original="#fcd770" style=""/></g><g><path d="m59 10.93c0 1.11-.37 2.18-1.03 3.04l-7.94-7.94c.86-.66 1.93-1.03 3.04-1.03h1.93l4 4z" fill="#ffeaa7" data-original="#ffeaa7" style=""/></g><g><path d="m55 17-5.16 5.16c-2.68-2.95-6.31-4.97-10.34-5.66l7.5-7.5z" fill="#ffeaa7" data-original="#ffeaa7" style=""/></g><g><path d="m50.03 6.03 7.94 7.94c-.13.17-.28.34-.43.49l-2.54 2.54-8-8 2.54-2.54c.15-.15.32-.3.49-.43z" fill="#b4dd7f" data-original="#b4dd7f" style=""/></g><g><path d="m50 30h6v4h-6z" fill="#b4dd7f" data-original="#b4dd7f" style=""/></g><g><path d="m56 34h-6c-1.73.29-3.23 1.18-4.3 2.44-1.06 1.26-1.7 2.88-1.7 4.64v.92 13h18v-13.92c0-3.51-2.54-6.5-6-7.08z" fill="#e6e9ed" data-original="#e6e9ed" style=""/></g><g><path d="m48 40h10v15h-10z" fill="#ff826e" data-original="#ff826e" style=""/></g><g><path d="m58 27v2c0 .55-.45 1-1 1h-1-6-1c-.55 0-1-.45-1-1v-2c0-.55.45-1 1-1h3.52 4.48c.55 0 1 .45 1 1z" fill="#a0d468" data-original="#a0d468" style=""/></g><g><circle cx="39" cy="22" fill="#4fc1e9" r="2" data-original="#4fc1e9" style=""/></g><g><circle cx="27" cy="30" fill="#4fc1e9" r="2" data-original="#4fc1e9" style=""/></g><g><circle cx="8" cy="60" fill="#4fc1e9" r="2" data-original="#4fc1e9" style=""/></g><g><circle cx="36" cy="46" fill="#4fc1e9" r="2" data-original="#4fc1e9" style=""/></g><g><circle cx="60" cy="55" fill="#4fc1e9" r="2" data-original="#4fc1e9" style=""/></g></g><g><path d="m57 33.202v-2.202c1.103 0 2-.897 2-2v-2c0-1.103-.897-2-2-2h-3.895c-.556-.989-1.195-1.918-1.908-2.782l7.047-7.046c1.132-1.135 1.756-2.642 1.756-4.243v-1.515l3.414-3.414-5.414-5.414-3.414 3.414h-1.515c-1.604 0-3.11.624-4.243 1.758l-9.675 9.675-4.901-.774c-1.884-.298-3.252-1.898-3.252-3.805 0-2.125 1.729-3.854 3.853-3.854h.147c1.103 0 2 .897 2 2s-.897 2-2 2v2c2.206 0 4-1.794 4-4s-1.794-4-4-4h-.147c-1.545 0-2.949.606-3.996 1.588-.655-3.186-3.481-5.588-6.857-5.588h-3c-8.822 0-16 7.178-16 16 0 4.694 2.012 9.018 5.524 12.062l-1.433 1.433c-3.88-3.423-6.091-8.29-6.091-13.495v-4h-2v4c0 5.741 2.419 11.115 6.673 14.913l-5.966 5.965c-.449.449-.707 1.071-.707 1.708 0 1.331 1.083 2.414 2.414 2.414h2.172l5.596 5.596c-.766.314-1.516.668-2.242 1.071l-4.426 2.459.972 1.748 4.425-2.459c5.438-3.021 12.348-3.17 17.905-.389l2.78 1.391c2.072 1.035 4.392 1.583 6.709 1.583h1.695v-2h-1.695c-2.008 0-4.019-.475-5.814-1.372l-2.78-1.391c-1.041-.521-2.128-.95-3.242-1.292l1.531-1.531c.645-.646 1-1.503 1-2.414s-.355-1.769-1-2.414l-3.586-3.586h4.777c2.862 0 5.636 1.026 7.81 2.89l.312.267c1.885 1.616 4.228 2.59 6.687 2.799v12.044h2v-13.917c0-3.007 2.134-5.553 5.086-6.083h5.828c2.952.53 5.086 3.076 5.086 6.083v11.101c-.314-.112-.648-.184-1-.184s-.686.072-1 .184v-13.184h-12v16h2v-2h8v2c0 1.654 1.346 3 3 3s3-1.346 3-3v-13.917c0-3.727-2.478-6.914-6-7.881zm-2-.191-4-.009v-2.002h4zm2.001-4.011h-8.001v-2h8zm-15.512-13.075 5.511-5.511 6.586 6.586-3.743 3.742c-2.317-2.274-5.192-3.948-8.354-4.817zm19.097-9.925-1.586 1.586-2.586-2.586 1.586-1.586zm-6 0 3.414 3.414v1.515c0 .486-.097.954-.261 1.396l-6.063-6.064c.441-.164.91-.261 1.395-.261zm-4.585 1.414 6.585 6.586-1.586 1.586-6.586-6.586zm-47.001 32.172c0-.109.044-.216.121-.293l11.171-11.171c.078-.078.185-.122.294-.122.228 0 .414.186.414.414v2.172l-9.414 9.414h-2.172c-.228 0-.414-.186-.414-.414zm10.964 1.914c0-1.397 1.138-2.535 2.536-2.535.578 0 1.12.202 1.566.555l-3.545 3.545c-.355-.446-.557-.988-.557-1.565zm1.95 3 3.586-3.586 1.586 1.586-3.58 3.58c-.004 0-.007.001-.011.001zm4.466 1.534 2.12-2.12 1.586 1.586-.884.884c-.932-.178-1.875-.298-2.822-.35zm5.62-3.034c0 .378-.147.732-.414 1l-.086.086-5.793-5.793c-.856-.856-1.995-1.328-3.207-1.328-2.501 0-4.536 2.034-4.536 4.535 0 1.211.472 2.351 1.329 3.207l1.724 1.724c-.585.119-1.164.267-1.737.435l-5.866-5.866 8.586-8.586 9.585 9.586c.268.268.415.622.415 1zm17.006-2.055c-1.982-.202-3.868-1.001-5.392-2.307l-.312-.268c-2.536-2.173-5.772-3.37-9.111-3.37h-6.777l-2.098-2.098c.557.058 1.118.098 1.684.098h8c3.009 0 5.992.994 8.4 2.8l1.2-1.6c-2.537-1.902-5.633-3.004-8.795-3.167.12-.323.195-.668.195-1.033 0-1.654-1.346-3-3-3s-3 1.346-3 3c0 .352.072.686.184 1h-3.184c-1.366 0-2.708-.206-4-.591v-1.995c0-1.331-1.083-2.414-2.414-2.414-.635 0-1.257.258-1.707.707l-.938.938c-3.139-2.668-4.941-6.491-4.941-10.645 0-7.72 6.28-14 14-14h3c2.757 0 5 2.243 5 5v.179c0 1.288-.501 2.499-1.412 3.409s-2.12 1.412-3.408 1.412h-.33-.001c-.761 0-1.477-.297-2.015-.835-.539-.538-.835-1.255-.834-2.017v-.236c0-.243.095-.473.268-.646.172-.172.4-.266.73-.266h.002c.551 0 1 .448 1 1v1h2v-1c0-1.626-1.303-2.947-3-2.992v-.008c-.019 0-.037.003-.056.003-.01 0-.019-.003-.03-.003-.001 0-.002 0-.003 0-.032 0-.063.008-.096.009-3.774.099-6.815 3.194-6.815 6.991 0 3.859 3.14 7 7 7h5.598c6.264 0 11.789 4.221 13.437 10.263l1.93-.525c-.602-2.209-1.661-4.201-3.052-5.894 1.206-.39 2.087-1.51 2.087-2.844 0-1.654-1.346-3-3-3-1.465 0-2.684 1.057-2.944 2.448-2.477-1.556-5.388-2.448-8.458-2.448h-5.598c-2.757 0-5-2.243-5-5 0-1.627.793-3.06 2-3.974v.122c0 1.296.504 2.514 1.42 3.431.916.916 2.133 1.421 3.428 1.421h.002.329c1.822 0 3.535-.71 4.823-1.998.106-.106.202-.219.299-.33.663 2.045 2.404 3.61 4.638 3.962l5.175.817c4.782.756 9.026 3.536 11.653 7.549h-1.767c-1.103 0-2 .897-2 2v2c0 1.103.897 2 2 2v2.202c-3.478.955-5.933 4.076-5.994 7.743zm-17.006-10.945c0-.552.449-1 1-1s1 .448 1 1-.449 1-1 1-1-.448-1-1zm12-8c0-.552.449-1 1-1s1 .448 1 1-.449 1-1 1-1-.448-1-1zm19 25h-8v-2h8zm0-6v2h-8v-2zm-8 10v-2h8v2zm11 5c-.551 0-1-.448-1-1s.449-1 1-1 1 .448 1 1-.449 1-1 1z" fill="#000000" data-original="#000000" style="" class=""/><path d="m13 14v-1h-2v1c0 6.065 4.935 11 11 11h2v-2h-2c-4.962 0-9-4.037-9-9z" fill="#000000" data-original="#000000" style="" class=""/><path d="m51.718 57.745c-2.625 2.099-5.92 3.255-9.279 3.255-3.286 0-6.524-1.111-9.118-3.128l-.756-.588c-2.722-2.118-6.121-3.284-9.57-3.284-2.124 0-4.189.424-6.141 1.261l-4.248 1.82.788 1.838 4.248-1.82c4.465-1.912 9.862-1.218 13.695 1.764l.756.588c2.943 2.288 6.617 3.549 10.346 3.549 3.812 0 7.55-1.312 10.528-3.693l.658-.526-1.25-1.561z" fill="#000000" data-original="#000000" style="" class=""/><path d="m33 46c0 1.654 1.346 3 3 3s3-1.346 3-3-1.346-3-3-3-3 1.346-3 3zm4 0c0 .552-.449 1-1 1s-1-.448-1-1 .449-1 1-1 1 .448 1 1z" fill="#000000" data-original="#000000" style="" class=""/><path d="m8 57c-1.654 0-3 1.346-3 3s1.346 3 3 3 3-1.346 3-3-1.346-3-3-3zm0 4c-.551 0-1-.448-1-1s.449-1 1-1 1 .448 1 1-.449 1-1 1z" fill="#000000" data-original="#000000" style="" class=""/></g></g></g></svg>
