<?xml version="1.0"?>
<svg xmlns="http://www.w3.org/2000/svg" xmlns:xlink="http://www.w3.org/1999/xlink" xmlns:svgjs="http://svgjs.com/svgjs" version="1.1" width="512" height="512" x="0" y="0" viewBox="0 0 511.999 511.999" style="enable-background:new 0 0 512 512" xml:space="preserve"><g>
<g xmlns="http://www.w3.org/2000/svg">
	<path style="" d="M142.01,423.553c0-16.139-5.554-30.951-14.814-42.557h0.004l-25.076-32.984l-25.05,32.633h0.038   c-9.428,11.657-15.092,26.606-15.092,42.908c0,27.799,16.477,51.662,39.996,61.971C125.534,475.215,142.01,451.352,142.01,423.553z   " fill="#bef7f0" data-original="#bef7f0"/>
	<path style="" d="M501.975,119.569c0-16.139-5.555-30.951-14.814-42.557h0.004l-25.076-32.984l-25.05,32.633h0.038   c-9.428,11.657-15.092,26.606-15.092,42.908c0,27.799,16.477,51.662,39.996,61.971   C485.499,171.231,501.975,147.368,501.975,119.569z" fill="#bef7f0" data-original="#bef7f0"/>
</g>
<path xmlns="http://www.w3.org/2000/svg" style="" d="M383.968,275.524c0-30.637-10.772-58.755-28.727-80.786h0.009l-62.29-80.207l-62.371,79.541h0.074  c-18.281,22.128-29.266,50.507-29.266,81.452c0,57.924,38.49,106.851,91.286,122.623  C345.479,382.375,383.968,333.449,383.968,275.524z" fill="#12addd" data-original="#12addd"/>
<path xmlns="http://www.w3.org/2000/svg" d="M363.147,188.606L264.352,61.393c-1.89-2.433-4.795-3.859-7.874-3.866c-0.008,0-0.016,0-0.023,0  c-3.071,0-5.973,1.412-7.868,3.83l-99.23,126.546c-0.178,0.227-0.345,0.46-0.501,0.699c-19.885,24.49-30.821,55.309-30.821,86.923  c0,76.075,61.891,137.967,137.966,137.967S393.967,351.6,393.967,275.525c0-31.531-10.909-62.339-30.728-86.799  C363.208,188.685,363.178,188.645,363.147,188.606z M256,393.493c-65.048,0-117.968-52.921-117.968-117.969  c0-27.362,9.58-54.028,26.975-75.083c0.285-0.345,0.544-0.706,0.776-1.079l90.634-115.583l90.704,116.793  c0.118,0.165,0.241,0.325,0.37,0.483c17.075,20.951,26.478,47.398,26.478,74.469C373.969,340.572,321.048,393.493,256,393.493z" fill="#000000" data-original="#000000" style=""/>
<path xmlns="http://www.w3.org/2000/svg" d="M345.958,284.271c-5.375-1.269-10.76,2.062-12.027,7.437c-5.696,24.163-22.84,44.241-45.856,53.709  c-5.106,2.101-7.544,7.944-5.442,13.051c1.589,3.863,5.317,6.197,9.251,6.197c1.267,0,2.556-0.242,3.801-0.754  c28.965-11.915,50.54-37.191,57.713-67.613C354.663,290.922,351.332,285.538,345.958,284.271z" fill="#000000" data-original="#000000" style=""/>
<path xmlns="http://www.w3.org/2000/svg" d="M335.992,253.707v0.203c0,5.522,4.478,9.999,9.999,9.999c5.521,0,9.999-4.477,9.999-9.999v-0.203  c0-5.522-4.478-9.999-9.999-9.999C340.469,243.708,335.992,248.185,335.992,253.707z" fill="#000000" data-original="#000000" style=""/>
<path xmlns="http://www.w3.org/2000/svg" d="M11.051,288.325c0.308,0,0.618-0.014,0.93-0.043c5.499-0.507,9.546-5.375,9.039-10.875  C10.344,161.639,87.681,53.816,200.912,26.601c49.349-11.86,101.105-7.451,147.492,12.284l-7.562,4.367  c-4.783,2.762-6.421,8.876-3.66,13.659c1.853,3.208,5.212,5,8.669,5c1.696,0,3.416-0.432,4.989-1.341l24.206-13.976  c4.783-2.761,6.421-8.876,3.66-13.659L364.731,8.729c-2.761-4.782-8.873-6.421-13.659-3.66c-4.086,2.359-5.865,7.163-4.58,11.496  C298.729-1.473,246.34-4.885,196.24,7.156C136.055,21.622,83.195,57.351,47.401,107.764C11.955,157.687-4.488,218.587,1.106,279.244  C1.584,284.43,5.942,288.326,11.051,288.325z" fill="#000000" data-original="#000000" style=""/>
<path xmlns="http://www.w3.org/2000/svg" d="M509.718,222.138c-0.735-5.473-5.77-9.317-11.241-8.58c-5.473,0.735-9.314,5.767-8.579,11.241  c15.471,115.226-57.324,226.166-169.33,258.057c-47.959,13.656-97.711,11.961-144.309-4.833l9.455-5.995  c4.664-2.958,6.046-9.135,3.09-13.799c-2.957-4.664-9.134-6.046-13.8-3.09l-23.605,14.967c-4.661,2.956-6.045,9.128-3.094,13.792  l14.817,23.411c1.903,3.007,5.144,4.653,8.458,4.653c1.828,0,3.679-0.501,5.338-1.552c3.344-2.116,4.991-5.887,4.578-9.572  c24.24,7.423,49.15,11.161,74.167,11.161c23.528,0,47.151-3.297,70.38-9.911c59.534-16.95,110.864-54.843,144.535-106.698  C503.925,344.04,517.825,282.51,509.718,222.138z" fill="#000000" data-original="#000000" style=""/>
<path xmlns="http://www.w3.org/2000/svg" d="M135.198,374.995c-0.013-0.017-0.024-0.033-0.037-0.05l-50.949-67.014c-1.887-2.481-4.821-3.94-7.937-3.948  c-0.008,0-0.016,0-0.023,0c-3.107,0-6.039,1.445-7.932,3.911l-51.174,66.662c-0.119,0.156-0.233,0.313-0.342,0.474  C5.977,388.73,0.025,405.925,0.025,423.553c0,42.684,34.091,77.41,75.992,77.41s75.992-34.727,75.992-77.41  C152.009,405.927,146.041,388.695,135.198,374.995z M76.017,480.965c-30.876,0-55.994-25.755-55.994-57.412  c0-13.355,4.57-26.36,12.869-36.619c0.219-0.271,0.423-0.552,0.61-0.841l42.712-55.639l42.856,56.369  c0.1,0.139,0.203,0.276,0.311,0.41c8.145,10.209,12.632,23.108,12.632,36.32C132.011,455.21,106.893,480.965,76.017,480.965z" fill="#000000" data-original="#000000" style=""/>
<path xmlns="http://www.w3.org/2000/svg" d="M109.014,413.554c-5.521,0-9.999,4.477-9.999,9.999c0,13.072-10.316,23.707-22.998,23.707c-5.521,0-9.999,4.477-9.999,9.999  s4.478,9.999,9.999,9.999c23.708,0,42.996-19.606,42.996-43.705C119.013,418.031,114.536,413.554,109.014,413.554z" fill="#000000" data-original="#000000" style=""/>
<path xmlns="http://www.w3.org/2000/svg" d="M376.772,71.042c-10.829,13.701-16.782,30.897-16.782,48.527c0,42.684,34.091,77.41,75.992,77.41  s75.992-34.726,75.992-77.41c0-17.626-5.968-34.857-16.811-48.558c-0.013-0.017-0.024-0.033-0.037-0.05L444.177,3.948  c-1.887-2.481-4.821-3.94-7.937-3.948c-0.008,0-0.016,0-0.023,0c-3.107,0-6.038,1.445-7.932,3.911l-51.174,66.662  C376.993,70.726,376.881,70.883,376.772,71.042z M392.855,82.95c0.218-0.27,0.42-0.548,0.606-0.835l42.717-55.645l42.856,56.369  c0.1,0.139,0.203,0.276,0.311,0.41c8.145,10.209,12.632,23.108,12.632,36.32c0,31.658-25.118,57.412-55.994,57.412  s-55.994-25.755-55.994-57.412C379.987,106.214,384.558,93.21,392.855,82.95z" fill="#000000" data-original="#000000" style=""/>
<path xmlns="http://www.w3.org/2000/svg" d="M435.982,163.274c23.708,0,42.996-19.606,42.996-43.705c0-5.522-4.478-9.999-9.999-9.999c-5.521,0-9.999,4.477-9.999,9.999  c0,13.072-10.316,23.707-22.998,23.707c-5.521,0-9.999,4.477-9.999,9.999C425.983,158.798,430.46,163.274,435.982,163.274z" fill="#000000" data-original="#000000" style=""/>
<g xmlns="http://www.w3.org/2000/svg">
</g>
<g xmlns="http://www.w3.org/2000/svg">
</g>
<g xmlns="http://www.w3.org/2000/svg">
</g>
<g xmlns="http://www.w3.org/2000/svg">
</g>
<g xmlns="http://www.w3.org/2000/svg">
</g>
<g xmlns="http://www.w3.org/2000/svg">
</g>
<g xmlns="http://www.w3.org/2000/svg">
</g>
<g xmlns="http://www.w3.org/2000/svg">
</g>
<g xmlns="http://www.w3.org/2000/svg">
</g>
<g xmlns="http://www.w3.org/2000/svg">
</g>
<g xmlns="http://www.w3.org/2000/svg">
</g>
<g xmlns="http://www.w3.org/2000/svg">
</g>
<g xmlns="http://www.w3.org/2000/svg">
</g>
<g xmlns="http://www.w3.org/2000/svg">
</g>
<g xmlns="http://www.w3.org/2000/svg">
</g>
</g></svg>
