<svg width="98" height="24" viewBox="0 0 98 24" fill="none" xmlns="http://www.w3.org/2000/svg">
<g filter="url(#filter0_d)">
<g filter="url(#filter1_b)">
<path d="M10.6904 9.64209C10.6904 10.6873 10.4513 11.5295 9.97314 12.1685C9.49495 12.8075 8.84749 13.127 8.03076 13.127C7.1971 13.127 6.54118 12.8625 6.06299 12.3335V15.6406H4.88867V6.13184H5.96143L6.01855 6.89355C6.49674 6.30111 7.16113 6.00488 8.01172 6.00488C8.83691 6.00488 9.48861 6.31592 9.9668 6.93799C10.4492 7.56006 10.6904 8.42546 10.6904 9.53418V9.64209ZM9.51611 9.50879C9.51611 8.73438 9.35107 8.12288 9.021 7.67432C8.69092 7.22575 8.23812 7.00146 7.6626 7.00146C6.95166 7.00146 6.41846 7.31673 6.06299 7.94727V11.229C6.41423 11.8553 6.95166 12.1685 7.67529 12.1685C8.23812 12.1685 8.68457 11.9463 9.01465 11.502C9.34896 11.0534 9.51611 10.389 9.51611 9.50879ZM11.8774 9.50244C11.8774 8.82959 12.0086 8.22445 12.271 7.68701C12.5376 7.14958 12.9058 6.73486 13.3755 6.44287C13.8494 6.15088 14.389 6.00488 14.9941 6.00488C15.9294 6.00488 16.6847 6.32861 17.2603 6.97607C17.84 7.62354 18.1299 8.4847 18.1299 9.55957V9.64209C18.1299 10.3107 18.0008 10.9116 17.7427 11.4448C17.4888 11.9738 17.1227 12.3864 16.6445 12.6826C16.1706 12.9788 15.6247 13.127 15.0068 13.127C14.0758 13.127 13.3205 12.8032 12.7407 12.1558C12.1652 11.5083 11.8774 10.6514 11.8774 9.58496V9.50244ZM13.0581 9.64209C13.0581 10.4038 13.2337 11.0153 13.585 11.4766C13.9404 11.9378 14.4144 12.1685 15.0068 12.1685C15.6035 12.1685 16.0775 11.9357 16.4287 11.4702C16.7799 11.0005 16.9556 10.3446 16.9556 9.50244C16.9556 8.74919 16.7757 8.13981 16.416 7.67432C16.0605 7.20459 15.5866 6.96973 14.9941 6.96973C14.4144 6.96973 13.9468 7.20036 13.5913 7.66162C13.2358 8.12288 13.0581 8.78304 13.0581 9.64209ZM20.6055 12.0415H24.6235V13H19.1709V12.1367L22.9604 7.10303H19.228V6.13184H24.4331V6.96338L20.6055 12.0415ZM25.5376 9.50244C25.5376 8.82959 25.6688 8.22445 25.9312 7.68701C26.1978 7.14958 26.5659 6.73486 27.0356 6.44287C27.5096 6.15088 28.0492 6.00488 28.6543 6.00488C29.5895 6.00488 30.3449 6.32861 30.9204 6.97607C31.5002 7.62354 31.79 8.4847 31.79 9.55957V9.64209C31.79 10.3107 31.661 10.9116 31.4028 11.4448C31.1489 11.9738 30.7829 12.3864 30.3047 12.6826C29.8307 12.9788 29.2848 13.127 28.667 13.127C27.736 13.127 26.9806 12.8032 26.4009 12.1558C25.8254 11.5083 25.5376 10.6514 25.5376 9.58496V9.50244ZM26.7183 9.64209C26.7183 10.4038 26.8939 11.0153 27.2451 11.4766C27.6006 11.9378 28.0745 12.1685 28.667 12.1685C29.2637 12.1685 29.7376 11.9357 30.0889 11.4702C30.4401 11.0005 30.6157 10.3446 30.6157 9.50244C30.6157 8.74919 30.4359 8.13981 30.0762 7.67432C29.7207 7.20459 29.2467 6.96973 28.6543 6.96973C28.0745 6.96973 27.6069 7.20036 27.2515 7.66162C26.896 8.12288 26.7183 8.78304 26.7183 9.64209ZM37.2617 11.1782C37.2617 10.8608 37.1411 10.6154 36.8999 10.4419C36.6629 10.2642 36.2461 10.1118 35.6494 9.98486C35.057 9.85791 34.5851 9.70557 34.2339 9.52783C33.8869 9.3501 33.6287 9.13851 33.4595 8.89307C33.2944 8.64762 33.2119 8.35563 33.2119 8.01709C33.2119 7.45426 33.4489 6.97819 33.9229 6.58887C34.401 6.19954 35.0104 6.00488 35.751 6.00488C36.5296 6.00488 37.1602 6.20589 37.6426 6.60791C38.1292 7.00993 38.3726 7.52409 38.3726 8.15039H37.1919C37.1919 7.82878 37.0544 7.5516 36.7793 7.31885C36.5085 7.0861 36.1657 6.96973 35.751 6.96973C35.3236 6.96973 34.9893 7.06283 34.748 7.24902C34.5068 7.43522 34.3862 7.67855 34.3862 7.979C34.3862 8.26253 34.4984 8.47624 34.7227 8.62012C34.9469 8.764 35.3511 8.90153 35.9351 9.03271C36.5233 9.1639 36.9993 9.32048 37.3633 9.50244C37.7272 9.68441 37.9959 9.90446 38.1694 10.1626C38.3472 10.4165 38.436 10.7275 38.436 11.0957C38.436 11.7093 38.1906 12.2023 37.6997 12.5747C37.2088 12.9429 36.5719 13.127 35.7891 13.127C35.2389 13.127 34.7523 13.0296 34.3291 12.835C33.9059 12.6403 33.5737 12.3695 33.3325 12.0225C33.0955 11.6712 32.9771 11.2925 32.9771 10.8862H34.1514C34.1725 11.2798 34.3291 11.5929 34.6211 11.8257C34.9173 12.0542 35.3066 12.1685 35.7891 12.1685C36.2334 12.1685 36.5889 12.0796 36.8555 11.9019C37.1263 11.7199 37.2617 11.4787 37.2617 11.1782ZM46.7642 9.26123H44.5933V13H43.3682V3.75781H46.4277C47.4688 3.75781 48.2686 3.99479 48.8271 4.46875C49.39 4.94271 49.6714 5.63249 49.6714 6.53809C49.6714 7.11361 49.5148 7.61507 49.2017 8.04248C48.8927 8.46989 48.4611 8.78939 47.9067 9.00098L50.0776 12.9238V13H48.77L46.7642 9.26123ZM44.5933 8.26465H46.4658C47.071 8.26465 47.5513 8.10807 47.9067 7.79492C48.2664 7.48177 48.4463 7.06283 48.4463 6.53809C48.4463 5.9668 48.2749 5.52881 47.9321 5.22412C47.5936 4.91943 47.1027 4.76497 46.4595 4.76074H44.5933V8.26465ZM52.4771 13H51.3027V6.13184H52.4771V13ZM51.2075 4.31006C51.2075 4.11963 51.2646 3.95882 51.3789 3.82764C51.4974 3.69645 51.6709 3.63086 51.8994 3.63086C52.1279 3.63086 52.3014 3.69645 52.4199 3.82764C52.5384 3.95882 52.5977 4.11963 52.5977 4.31006C52.5977 4.50049 52.5384 4.65918 52.4199 4.78613C52.3014 4.91309 52.1279 4.97656 51.8994 4.97656C51.6709 4.97656 51.4974 4.91309 51.3789 4.78613C51.2646 4.65918 51.2075 4.50049 51.2075 4.31006ZM54.0513 9.50244C54.0513 8.82959 54.1825 8.22445 54.4448 7.68701C54.7114 7.14958 55.0796 6.73486 55.5493 6.44287C56.0233 6.15088 56.5628 6.00488 57.168 6.00488C58.1032 6.00488 58.8586 6.32861 59.4341 6.97607C60.0138 7.62354 60.3037 8.4847 60.3037 9.55957V9.64209C60.3037 10.3107 60.1746 10.9116 59.9165 11.4448C59.6626 11.9738 59.2965 12.3864 58.8184 12.6826C58.3444 12.9788 57.7985 13.127 57.1807 13.127C56.2497 13.127 55.4943 12.8032 54.9146 12.1558C54.339 11.5083 54.0513 10.6514 54.0513 9.58496V9.50244ZM55.2319 9.64209C55.2319 10.4038 55.4076 11.0153 55.7588 11.4766C56.1143 11.9378 56.5882 12.1685 57.1807 12.1685C57.7773 12.1685 58.2513 11.9357 58.6025 11.4702C58.9538 11.0005 59.1294 10.3446 59.1294 9.50244C59.1294 8.74919 58.9495 8.13981 58.5898 7.67432C58.2344 7.20459 57.7604 6.96973 57.168 6.96973C56.5882 6.96973 56.1206 7.20036 55.7651 7.66162C55.4097 8.12288 55.2319 8.78304 55.2319 9.64209ZM63.5347 3.75781L66.5562 11.2988L69.5776 3.75781H71.1582V13H69.9395V9.40088L70.0537 5.51611L67.0195 13H66.0864L63.0586 5.53516L63.1792 9.40088V13H61.9604V3.75781H63.5347ZM77.3662 13C77.2985 12.8646 77.2435 12.6234 77.2012 12.2764C76.6553 12.8434 76.0036 13.127 75.2461 13.127C74.569 13.127 74.0125 12.9365 73.5767 12.5557C73.145 12.1706 72.9292 11.6839 72.9292 11.0957C72.9292 10.3805 73.2 9.82617 73.7417 9.43262C74.2876 9.03483 75.0535 8.83594 76.0396 8.83594H77.1821V8.29639C77.1821 7.8859 77.0594 7.56006 76.814 7.31885C76.5685 7.0734 76.2067 6.95068 75.7285 6.95068C75.3096 6.95068 74.9583 7.05648 74.6748 7.26807C74.3913 7.47965 74.2495 7.73568 74.2495 8.03613H73.0688C73.0688 7.69336 73.1895 7.36328 73.4307 7.0459C73.6761 6.72428 74.0062 6.47038 74.4209 6.28418C74.8398 6.09798 75.299 6.00488 75.7983 6.00488C76.5897 6.00488 77.2096 6.20378 77.6582 6.60156C78.1068 6.99512 78.3395 7.5389 78.3564 8.23291V11.394C78.3564 12.0246 78.4368 12.526 78.5977 12.8984V13H77.3662ZM75.4175 12.105C75.7856 12.105 76.1348 12.0098 76.4648 11.8193C76.7949 11.6289 77.034 11.3813 77.1821 11.0767V9.66748H76.2617C74.8229 9.66748 74.1035 10.0885 74.1035 10.9307C74.1035 11.2988 74.2262 11.5866 74.4717 11.7939C74.7171 12.0013 75.0324 12.105 75.4175 12.105ZM83.5171 7.18555C83.3394 7.15592 83.1468 7.14111 82.9395 7.14111C82.1693 7.14111 81.6466 7.46908 81.3716 8.125V13H80.1973V6.13184H81.3398L81.3589 6.92529C81.744 6.31169 82.2899 6.00488 82.9966 6.00488C83.2251 6.00488 83.3986 6.03451 83.5171 6.09375V7.18555Z" fill="white"/>
</g>
</g>
<defs>
<filter id="filter0_d" x="-3" y="0" width="105" height="23.6406" filterUnits="userSpaceOnUse" color-interpolation-filters="sRGB">
<feFlood flood-opacity="0" result="BackgroundImageFix"/>
<feColorMatrix in="SourceAlpha" type="matrix" values="0 0 0 0 0 0 0 0 0 0 0 0 0 0 0 0 0 0 127 0"/>
<feOffset dy="4"/>
<feGaussianBlur stdDeviation="2"/>
<feColorMatrix type="matrix" values="0 0 0 0 0 0 0 0 0 0 0 0 0 0 0 0 0 0 0.25 0"/>
<feBlend mode="normal" in2="BackgroundImageFix" result="effect1_dropShadow"/>
<feBlend mode="normal" in="SourceGraphic" in2="effect1_dropShadow" result="shape"/>
</filter>
<filter id="filter1_b" x="3.88867" y="2.63086" width="80.6284" height="14.0098" filterUnits="userSpaceOnUse" color-interpolation-filters="sRGB">
<feFlood flood-opacity="0" result="BackgroundImageFix"/>
<feGaussianBlur in="BackgroundImage" stdDeviation="0.5"/>
<feComposite in2="SourceAlpha" operator="in" result="effect1_backgroundBlur"/>
<feBlend mode="normal" in="SourceGraphic" in2="effect1_backgroundBlur" result="shape"/>
</filter>
</defs>
</svg>
